# xmcd
#
# Track frame offsets:
#  150
#  32268
#  58033
#  84567
#  98046
#  115066
#  153438
#  179037
#  203966
#  221597
#  243893
#  263292
#  286957
#
# Disc length: 4235 seconds
#
# Revision: 0
# Processed by: cddbd v1.5.1PL0 Copyright (c) Steve Scherf et al.
# Submitted via: Collectorz.com Music Collector 6.9
#
DISCID=aa10890d
DTITLE=lyle lovett and his large band - Greek Theatre, La, Ca - Disc 1
DYEAR=2001
DGENRE=
TTITLE0=Instrumental
TTITLE1=Church
TTITLE2=Here I Am
TTITLE3=Cowboy Man
TTITLE4=He Makes Me Feel Good
TTITLE5=Since The Last Time
TTITLE6=I've Been To Memphis
TTITLE7=That's Right (You're Not From Texas)
TTITLE8=She's No Lady
TTITLE9=The Truck Song
TTITLE10=Bears
TTITLE11=She's Already Made Up Her Mind
TTITLE12=North Dakota
EXTD=
EXTT0=
EXTT1=
EXTT2=
EXTT3=
EXTT4=
EXTT5=
EXTT6=
EXTT7=
EXTT8=
EXTT9=
EXTT10=
EXTT11=
EXTT12=
PLAYORDER=
